<?xml version="1.0" encoding="UTF-8"?><svg id="Calque_2" xmlns="http://www.w3.org/2000/svg" viewBox="0 0 294.1 105.15"><g id="Calque_2-2"><rect width="294.1" height="105.15" style="fill:#fff; stroke-width:0px;"/><path d="M13.69,34.18h3.15c2.27,0,3.67,1.16,3.67,3.08,0,1.24-.6,2.17-1.65,2.67l3.24,4.57h-2.5l-2.74-4.17h-1.08v4.17h-2.09v-10.31ZM15.78,35.97v2.58h1.18c.88,0,1.4-.47,1.4-1.31,0-.78-.52-1.27-1.4-1.27h-1.18Z" style="fill:#000; stroke-width:0px;"/><path d="M23.4,34.18h6.01v1.78h-3.92v2.39h3.33v1.78h-3.33v2.58h3.92v1.78h-6.01v-10.31ZM25.43,33.3l1.67-1.99h2.15l-1.92,1.99h-1.9Z" style="fill:#000; stroke-width:0px;"/><path d="M31.84,34.18h3.4c2.27,0,3.65,1.16,3.65,3.08s-1.39,3.06-3.65,3.06h-1.31v4.17h-2.09v-10.31ZM33.93,35.97v2.58h1.4c.88,0,1.41-.47,1.41-1.31,0-.78-.53-1.27-1.41-1.27h-1.4Z" style="fill:#000; stroke-width:0px;"/><path d="M46.71,34.18h2.09v6.28c0,2.71-1.59,4.33-4.18,4.33s-4.17-1.62-4.17-4.33v-6.28h2.09v6.45c0,1.39.78,2.2,2.09,2.2s2.08-.81,2.08-2.2v-6.45Z" style="fill:#000; stroke-width:0px;"/><path d="M51.39,34.18h2.93c2.15,0,3.45,1.06,3.45,2.8,0,.83-.38,1.55-1.09,2.03,1.09.49,1.69,1.37,1.69,2.45,0,1.89-1.46,3.04-3.83,3.04h-3.15v-10.31ZM53.49,35.97v2.25h.88c.8,0,1.25-.4,1.25-1.13,0-.69-.46-1.12-1.25-1.12h-.88ZM53.49,40.02v2.7h1.18c.97,0,1.56-.52,1.56-1.37s-.59-1.33-1.56-1.33h-1.18Z" style="fill:#000; stroke-width:0px;"/><path d="M60.51,34.18h2.09v8.41h3.92v1.9h-6.01v-10.31Z" style="fill:#000; stroke-width:0px;"/><path d="M68.37,34.18h2.09v10.31h-2.09v-10.31Z" style="fill:#000; stroke-width:0px;"/><path d="M84.16,45.22c.22,0,.52-.03.74-.12v1.77c-.34.13-.63.19-1.09.19-1.15,0-2.21-.47-3.23-1.36l-1.22-1.09c-.44.12-.91.18-1.41.18-3.26,0-5.48-2.5-5.48-5.45s2.22-5.45,5.48-5.45,5.47,2.5,5.47,5.45c0,1.72-.77,3.3-2.03,4.3l.62.59c.8.72,1.5.99,2.17.99ZM81.26,39.34c0-1.97-1.39-3.49-3.32-3.49s-3.33,1.52-3.33,3.49,1.38,3.49,3.33,3.49,3.32-1.52,3.32-3.49Z" style="fill:#000; stroke-width:0px;"/><path d="M91.5,34.18h2.09v6.28c0,2.71-1.59,4.33-4.18,4.33s-4.17-1.62-4.17-4.33v-6.28h2.09v6.45c0,1.39.78,2.2,2.09,2.2s2.08-.81,2.08-2.2v-6.45Z" style="fill:#000; stroke-width:0px;"/><path d="M96.19,34.18h6.01v1.78h-3.92v2.39h3.33v1.78h-3.33v2.58h3.92v1.78h-6.01v-10.31Z" style="fill:#000; stroke-width:0px;"/><path d="M13.69,49.06h6.01v1.78h-3.92v2.39h3.33v1.78h-3.33v4.36h-2.09v-10.31Z" style="fill:#000; stroke-width:0px;"/><path d="M21.54,49.06h3.15c2.27,0,3.67,1.16,3.67,3.08,0,1.24-.6,2.17-1.65,2.67l3.24,4.57h-2.5l-2.74-4.17h-1.08v4.17h-2.09v-10.31ZM23.63,50.84v2.58h1.18c.88,0,1.4-.47,1.4-1.31,0-.78-.52-1.27-1.4-1.27h-1.18Z" style="fill:#000; stroke-width:0px;"/><path d="M34.3,49.06h2.74l3.9,10.31h-2.22l-.99-2.68h-4.13l-.99,2.68h-2.22l3.9-10.31ZM37.08,54.91l-1.41-3.88-1.41,3.88h2.83Z" style="fill:#000; stroke-width:0px;"/><path d="M42.54,49.06h2.68l4.61,7.38v-7.38h2.09v10.31h-2.68l-4.61-7.41v7.41h-2.09v-10.31Z" style="fill:#000; stroke-width:0px;"/><path d="M62.11,56.29l1.65,1.27c-.8,1.09-2.03,1.86-3.54,2.05l-1.28,2.14h-1.86l1.3-2.17c-2.68-.47-4.45-2.74-4.45-5.36,0-2.95,2.22-5.45,5.48-5.45,1.87,0,3.4.84,4.35,2.09l-1.65,1.28c-.59-.84-1.52-1.41-2.7-1.41-1.95,0-3.33,1.52-3.33,3.49s1.38,3.49,3.33,3.49c1.18,0,2.11-.57,2.7-1.41Z" style="fill:#000; stroke-width:0px;"/><path d="M68.1,49.06h2.74l3.9,10.31h-2.22l-.99-2.68h-4.13l-.99,2.68h-2.22l3.9-10.31ZM70.89,54.91l-1.41-3.88-1.41,3.88h2.83Z" style="fill:#000; stroke-width:0px;"/><path d="M76.34,49.06h2.09v10.31h-2.09v-10.31Z" style="fill:#000; stroke-width:0px;"/><path d="M81.91,56.54c.62.8,1.44,1.27,2.28,1.27s1.33-.44,1.33-1.19c0-1.84-4.72-1.43-4.72-4.86,0-1.64,1.34-2.99,3.3-2.99,1.55,0,2.74.69,3.61,1.74l-1.53,1.37c-.6-.78-1.28-1.28-2.06-1.28-.72,0-1.19.47-1.19,1.08,0,1.84,4.72,1.41,4.72,4.91-.03,1.92-1.53,3.09-3.42,3.09-1.74,0-2.92-.63-3.83-1.72l1.52-1.4Z" style="fill:#000; stroke-width:0px;"/><path d="M89.84,49.06h6.01v1.78h-3.92v2.39h3.33v1.78h-3.33v2.58h3.92v1.78h-6.01v-10.31Z" style="fill:#000; stroke-width:0px;"/><path d="M47.25,87.85c.28,0,.52.21.39.75l-1.3.3c.23-.6.6-1.05.91-1.05M47.97,89.95h-.26c-.33.39-.67.69-1.02.69s-.54-.21-.54-.69c0-.2.02-.39.06-.57l2.09-.69c.41-.97-.08-1.39-.66-1.39-.99,0-2.12,1.66-2.12,3.11,0,.65.31,1.01.79,1.01.57,0,1.16-.55,1.64-1.46M47.55,86.91l1.47-1.38v-.16h-.79l-.91,1.54h.23ZM43.03,87.87h.7l-1.1,3.02c-.1.26.04.51.3.51.63,0,1.64-.62,2-1.47h-.2c-.28.29-.82.69-1.28.77l1.01-2.84h1.04l.13-.43h-1.01l.39-1.09h-.4l-.72,1.09-.85.12v.31ZM42.09,87.73c.08-.28-.11-.44-.25-.44-.6,0-1.32.54-1.61,1.31h.2c.2-.28.53-.59.84-.64l-1.16,3.01c-.11.28.11.44.25.44.57,0,1.25-.55,1.54-1.31h-.2c-.2.28-.53.59-.84.64l1.23-3.01ZM42.3,86.22c.27,0,.5-.22.5-.5s-.23-.5-.5-.5-.5.23-.5.5.22.5.5.5M35.64,90.85c-.15.34,0,.56.34.56.2,0,.29-.05.38-.27l.8-2.13c.37-.45,1.13-.94,1.44-.94.22,0,.19.18.05.45l-1.23,2.37c-.12.23.04.51.3.51.6,0,1.32-.54,1.61-1.31h-.2c-.2.28-.53.59-.84.64l1.06-2.14c.14-.27.2-.53.2-.73,0-.35-.2-.57-.56-.57-.52,0-1.05.59-1.68,1.32v-.56c0-.4-.13-.76-.49-.76-.23,0-.45.2-.65.48v.08c.39-.02.57.57.29,1.19l-.82,1.81ZM35.63,88.21c.14-.49.07-.92-.31-.92-.45,0-.56.34-1.01,1.32v-.56c0-.4-.13-.76-.49-.76-.42,0-.81.66-1.1,1.31h.2c.2-.29.39-.47.54-.47.18,0,.28.28,0,.9l-.82,1.81c-.15.34,0,.56.34.56.2,0,.29-.05.38-.27l.8-2.13c.23-.28.43-.52.69-.79h.79ZM30.98,87.85c.28,0,.52.21.39.75l-1.3.3c.23-.6.6-1.05.91-1.05M31.7,89.95h-.26c-.33.39-.67.69-1.02.69s-.54-.21-.54-.69c0-.2.02-.39.06-.57l2.09-.69c.41-.97-.08-1.39-.66-1.39-.99,0-2.12,1.66-2.12,3.11,0,.65.31,1.01.79,1.01.57,0,1.16-.55,1.64-1.46M26.76,87.87h.7l-1.1,3.02c-.1.26.04.51.3.51.63,0,1.64-.62,2-1.47h-.2c-.28.29-.82.69-1.28.77l1.01-2.84h1.04l.13-.43h-1.01l.39-1.09h-.4l-.72,1.09-.85.12v.31ZM22.94,90.23c0-.93,1.04-2.19,1.62-2.19.13,0,.25.02.36.05l-.6,1.61c-.35.42-.88.94-1.13.94-.14,0-.23-.12-.23-.4M26.13,87.12l-.32-.02-.36.35h-.08c-1.72,0-3.21,1.94-3.21,3.34,0,.39.24.62.62.62.45,0,.88-.64,1.38-1.32l-.02.24c-.06.7.15,1.07.51,1.07.42,0,.81-.66,1.1-1.31h-.2c-.2.29-.39.47-.54.47-.16,0-.27-.29,0-.9l1.11-2.55ZM22.45,88.21c.14-.49.07-.92-.31-.92-.45,0-.56.34-1.01,1.32v-.56c0-.4-.13-.76-.49-.76-.42,0-.81.66-1.1,1.31h.2c.2-.29.39-.47.54-.47.18,0,.28.28,0,.9l-.82,1.81c-.15.34,0,.56.34.56.2,0,.29-.05.38-.27l.8-2.13c.23-.28.43-.52.69-.79h.79ZM16.66,91.25l.08-.23c-1.01-.19-1.13-.19-.73-1.29l.41-1.13h1.11c.5,0,.51.2.43.75h.29l.67-1.82h-.29c-.25.43-.45.75-.99.75h-1.1l.58-1.6c.18-.51.29-.61.97-.61h.48c.7,0,.79.19.79.9h.28l.23-1.24h-4.17l-.08.23c.81.17.88.24.51,1.29l-.91,2.48c-.38,1.04-.54,1.12-1.47,1.29l-.07.23h2.98Z" style="fill:#000; stroke-width:0px;"/><path d="M37.12,78.4c.28,0,.52.21.39.75l-1.3.3c.23-.6.6-1.05.91-1.05M37.84,80.49h-.26c-.33.39-.67.69-1.02.69s-.54-.21-.54-.69c0-.2.02-.39.06-.57l2.09-.69c.41-.97-.08-1.39-.66-1.39-.99,0-2.12,1.66-2.12,3.11,0,.65.31,1.01.79,1.01.57,0,1.16-.55,1.64-1.46M37.42,77.45l1.47-1.38v-.16h-.79l-.91,1.54h.23ZM32.9,78.42h.7l-1.1,3.02c-.1.26.04.51.3.51.63,0,1.64-.62,2-1.47h-.2c-.28.29-.82.69-1.28.77l1.01-2.84h1.04l.13-.43h-1.01l.39-1.09h-.4l-.72,1.09-.85.12v.31ZM31.97,78.28c.08-.28-.11-.44-.25-.44-.6,0-1.32.54-1.61,1.31h.2c.2-.28.53-.59.84-.64l-1.16,3.01c-.11.28.11.44.25.44.57,0,1.25-.55,1.54-1.31h-.2c-.2.28-.53.59-.84.64l1.23-3.01ZM32.18,76.76c.27,0,.5-.22.5-.5s-.23-.5-.5-.5-.5.23-.5.5.22.5.5.5M28.15,81.29l2.11-5.53-.07-.08-1.32.15v.16l.26.2c.23.18.16.36-.05.92l-1.65,4.34c-.12.23.04.51.3.51.6,0,1.25-.54,1.54-1.31h-.2c-.2.28-.6.59-.92.64M24.15,80.77c0-.93,1.04-2.19,1.62-2.19.13,0,.25.02.36.05l-.6,1.61c-.35.42-.88.94-1.13.94-.14,0-.23-.12-.23-.4M27.33,77.66l-.32-.02-.36.35h-.08c-1.72,0-3.21,1.94-3.21,3.34,0,.39.24.62.62.62.45,0,.88-.64,1.38-1.32l-.02.24c-.06.7.15,1.07.51,1.07.42,0,.81-.66,1.1-1.31h-.2c-.2.29-.39.47-.54.47-.16,0-.27-.29,0-.9l1.11-2.55ZM19.63,82.69c0-.4.39-.65.94-.87.18.09.45.19.82.31.57.19.79.26.79.44,0,.37-.63.65-1.48.65-.72,0-1.07-.15-1.07-.53M21.2,80.24c-.25,0-.35-.21-.35-.45,0-.67.36-1.66.93-1.66.25,0,.35.21.35.45,0,.67-.36,1.66-.93,1.66M22.84,82.32c0-.48-.43-.66-1.13-.87-.6-.18-.88-.23-.88-.43,0-.16.13-.35.39-.48.99-.05,1.63-.95,1.63-1.69,0-.16-.03-.29-.08-.42h.84l.13-.43h-1.33c-.16-.1-.35-.15-.54-.15-1.05,0-1.73.92-1.73,1.67,0,.57.36.92.8,1.01-.49.22-.76.48-.76.78,0,.17.06.29.2.41-1.13.33-1.58.71-1.58,1.25s.69.74,1.5.74c1.38,0,2.54-.75,2.54-1.38M17.55,79.08c.5,0,.51.2.43.75h.29l.67-1.82h-.29c-.25.43-.45.75-.99.75h-1.1l.55-1.52c.18-.51.29-.6.97-.6h.48c.7,0,.79.19.79.89h.28l.23-1.24h-4.17l-.08.23c.81.17.88.24.51,1.29l-.91,2.48c-.38,1.04-.54,1.12-1.47,1.29l-.07.23h4.64l.83-1.32h-.32c-.53.5-1.19.98-2.13.98-1.23,0-1.12-.05-.71-1.18l.44-1.2h1.11ZM18.16,75.91l1.47-1.01v-.16h-.89l-.82,1.17h.23Z" style="fill:#000; stroke-width:0px;"/><path d="M36.63,68.94c.28,0,.52.21.39.75l-1.3.3c.23-.6.6-1.05.91-1.05M37.35,71.04h-.26c-.33.39-.67.69-1.02.69s-.54-.21-.54-.69c0-.2.02-.39.06-.57l2.09-.69c.41-.97-.08-1.39-.66-1.39-.99,0-2.12,1.66-2.12,3.11,0,.65.31,1.01.79,1.01.57,0,1.16-.55,1.64-1.46M36.93,68l1.47-1.38v-.16h-.79l-.91,1.54h.23ZM32.6,68.97h.55l-1.1,3.02c-.1.26.04.51.3.51.63,0,1.64-.62,2-1.47h-.2c-.28.29-.82.69-1.28.77l1.01-2.84h1.04l.13-.43h-1.01l.39-1.09h-.4l-.72,1.09-.71.12v.31ZM32.06,69.31c.14-.49.07-.92-.31-.92-.45,0-.56.34-1.01,1.32v-.56c0-.4-.13-.76-.49-.76-.42,0-.81.66-1.1,1.31h.2c.2-.29.39-.47.54-.47.18,0,.28.28,0,.9l-.82,1.81c-.15.34,0,.56.34.56.2,0,.29-.05.38-.27l.8-2.13c.23-.28.43-.52.69-.79h.79ZM27.41,68.94c.28,0,.52.21.39.75l-1.3.3c.23-.6.6-1.05.91-1.05M28.13,71.04h-.26c-.33.39-.67.69-1.02.69s-.54-.21-.54-.69c0-.2.02-.39.06-.57l2.09-.69c.41-.97-.08-1.39-.66-1.39-.99,0-2.12,1.66-2.12,3.11,0,.65.31,1.01.79,1.01.57,0,1.16-.55,1.64-1.46M23,71.89c-.2,0-.5-.19-.5-.36,0-.05.09-.29.2-.58l.34-.9c.36-.43.92-.89,1.23-.89.19,0,.33.12.33.4,0,.82-.77,2.33-1.6,2.33M25.38,69.22c0-.61-.23-.84-.65-.84-.53,0-1.03.56-1.53,1.24l1.26-3.32-.07-.08-1.32.15v.16l.26.2c.23.18.16.37-.05.92l-1.36,3.51c-.1.26-.22.56-.22.64,0,.36.49.7.94.7,1.03,0,2.75-1.85,2.75-3.27M21.26,68.82c.08-.28-.11-.44-.25-.44-.6,0-1.32.54-1.61,1.31h.2c.2-.28.53-.59.84-.64l-1.16,3.01c-.11.28.11.44.25.44.57,0,1.25-.55,1.54-1.31h-.2c-.2.28-.53.59-.84.64l1.23-3.01ZM21.48,67.31c.27,0,.5-.22.5-.5s-.23-.5-.5-.5-.5.23-.5.5.22.5.5.5M18.43,66.83h-2.75l-.08.23c.81.17.88.24.51,1.29l-.89,2.48c-.38,1.04-.54,1.12-1.47,1.29l-.07.23h4.19l.91-1.62h-.32c-.51.57-1.12,1.28-2.05,1.28-.7,0-.79-.12-.41-1.18l.89-2.48c.37-1.04.54-1.12,1.47-1.29l.07-.23Z" style="fill:#000; stroke-width:0px;"/><path d="M29.22,25.72c.15-.15.3-.3.44-.46h0c.28-.31.54-.61.86-.88.1-.09.19-.16.28-.23.03-.03.03-.08.05-.1-.13.05-.21.16-.34.21-.03,0-.05-.03-.03-.05.09-.07.18-.14.28-.21,0,0-.01,0-.02,0-.03,0-.03-.03-.03-.05-.34-.05-.6.18-.83.39-.05.03-.1-.03-.13-.03-.39.13-.67.47-1.06.62v-.05c-.16.05-.31.15-.47.18-.23.05-.44.03-.65.03-.31.03-.63.1-.94.17,0,0-.02,0-.03,0-.17.05-.33.11-.48.19,0,0-.01,0-.02.01-.01.02-.03.03-.04.04-.06.06-.1.12-.18.15-.16.08-.29.22-.43.34-.01,0-.03.01-.04.01-.14.13-.28.27-.42.4,0,0-.05.01-.08,0,0,0,0,0,0,0,0,0,0-.02.01-.02.02-.04.04-.07.07-.11.03-.04.05-.08.08-.12.04-.05.07-.11.11-.16.01-.01,0-.03,0-.03,0,0-.02-.01-.04-.01.13-.13.28-.23.43-.32,0,0,0,0,0,0-.02,0-.04,0-.03-.03.02-.02.03-.05.04-.07,0,0,0-.02,0-.02,0,0-.01-.01-.02-.02-.04.03-.09.05-.12.09-.06.06-.11.17-.2.17,0,0-.02,0-.04,0-.01,0-.02,0-.03,0,0,0,0,0,0,0,0,0,0,0,0,0,0,0,0,0,0,0,0,0,0-.01.01-.02,0,0,0-.01.01-.02,0,0,0-.01,0-.02,0-.01.01-.02.02-.03,0,0,0-.02.01-.02.01-.02.02-.04.03-.06,0,0,.01-.02.02-.03,0-.02.02-.03.03-.05.01-.02,0-.04-.02-.05.05-.06.11-.11.18-.15h0c.1-.05.2-.11.3-.17.01-.01.03-.02.04-.04-.15.05-.28.12-.41.2,0,0-.03.01-.04.02,0,0-.03.01-.06-.02,0,0,0-.01,0-.02.03-.05.1-.08.16-.13.03,0,.05,0,.05.03.83-.65,1.97-.49,2.92-.83.08-.05.16-.1.23-.16.13-.05.23-.18.39-.26.21-.16.36-.34.44-.6,0-.03-.03-.05-.03-.05-.34.36-.72.65-1.14.85-.54.28-1.14.23-1.71.31.03-.05.08-.05.13-.05,0-.08.05-.1.1-.16h.08s.03-.05.05-.05c.05,0,.13-.03.1-.03-.08-.1-.23.08-.36,0,.05-.05.03-.13.08-.16h.1c0-.05.05-.1.05-.1.39-.23.75-.41,1.11-.62-.08,0-.13.08-.21.03.05,0,0-.08.05-.08.28-.08.52-.23.8-.34-.1,0-.18.08-.28,0,.05-.03.08-.08.16-.08v-.08s.03-.03.05-.03c-.03,0-.05-.03-.05-.03.03-.05.1-.03.16-.08-.03,0-.08,0-.08-.03.08-.1.21-.13.34-.16-.03-.05-.1,0-.1-.05,0-.03.03-.03.05-.03h-.05c-.05-.03-.03-.08-.03-.1.16-.18.16-.41.23-.62-.03,0-.05,0-.05-.03-.26.28-.67.39-1.06.49h-.13c-.13.05-.31.05-.44-.03-.1-.05-.16-.13-.26-.21-.21-.13-.41-.23-.65-.31-.65-.21-1.32-.31-1.99-.28.28-.16.6-.17.91-.26.44-.13.85-.28,1.32-.26-.08-.03-.18,0-.26,0-.36-.03-.72.08-1.11.16-.26.05-.49.16-.75.21-.16.05-.23.21-.41.18v-.08c.26-.31.57-.62.98-.65.47-.08.91,0,1.37.05.34.03.65.1.98.18.13,0,.16.21.26.23.16.05.31,0,.47.1,0-.05-.03-.1,0-.16.1-.1.23.03.34-.03.21-.13-.18-.36-.28-.54,0-.03.03-.05.03-.05.21.18.36.39.62.52.13.05.44.13.39-.03-.13-.28-.39-.52-.6-.78v-.1c-.05,0-.05-.03-.08-.05v-.1c-.1-.05-.08-.16-.13-.23-.08-.13-.03-.31-.08-.47s-.08-.28-.1-.44c-.08-.44-.18-.83-.23-1.24-.05-.49.28-.88.52-1.32.18-.31.39-.62.72-.83.08-.31.28-.57.49-.83.21-.25.55-.41.8-.52.36-.16.69-.26.69-.26H13.65v13.7h12.58c.49-.35.98-.52,1.67-.86.32-.16,1.07-.5,1.32-.75ZM25.24,23.87c-.05,0-.16.03-.13-.03.03-.13.21-.13.31-.18.05-.03.13-.08.18-.05.05.08.13.05.18.1-.16.16-.36.08-.54.16ZM21.28,23.3s-.03-.03-.03-.05c.34-.44.6-.85.83-1.32.34-.18.62-.44.88-.72.44-.47.91-.88,1.45-1.14.21-.08.47-.05.67.03-.08.1-.21.08-.31.16-.03,0-.05,0-.08-.03.03-.03.03-.05.03-.08-.26.28-.62.41-.83.75-.16.26-.26.6-.6.67-.1.03.03-.08-.03-.05-.8.49-1.37,1.09-1.99,1.79ZM23.43,21.59c-.03.05-.05.06-.08.1-.03.05-.05.08-.1.1-.03,0-.05,0-.05-.03.03-.1.1-.21.21-.23.03,0,.03.03.03.05ZM24.63,25.47s-.04.05-.06.08c.03,0,.06.02.03.04-.06.06-.12.11-.2.14,0,0-.02,0-.04,0-.03.03-.06.06-.1.09-.03.03-.17,0-.13-.03.07-.06.13-.12.19-.18.04-.03.08-.07.11-.1.02-.02.03-.04.06-.06.02-.01.16-.03.14.02ZM24.17,25.25s0,0,0,0c-.1.07-.19.14-.3.2-.11.06-.23.11-.34.17,0,0,0,0,0,0,0-.01-.03-.02-.04-.01-.1.05-.18.12-.26.2-.01.01-.02.02-.04.03,0,0,0,0,0,0,0,0,0,0,0,0-.01.01-.02.02-.04.04,0,0,0,0,0,0,0,0,0,0,0,0-.02.02-.04.04-.06.06-.01.02-.02.02-.03.04-.02.01-.06.01-.06-.02,0,0,0,0,0,0-.02,0-.03.02-.05.02-.01,0-.03.01-.04.02,0,0-.01,0-.02,0,0,0-.01,0-.02,0-.03.02-.06.05-.09.08-.05.05-.1.1-.15.16,0,0,0,0,0,0,0,0,0,0,0,0,0,0,0,0,0,.01,0,0,0,0,0,.01,0,0,0,0,0,0,0,0-.01.02-.02.03,0,0,0,0,0,0,0,0-.01,0-.02.01,0,0,0-.01-.01-.02,0,0,0,0,0-.01,0-.01-.02-.03-.02-.04,0,0,0,0,0,0,0,0,0,0,0-.01.03-.03.06-.06.08-.09,0,0,0,0,0,0,0-.01.02-.02.03-.03.01-.02.03-.04.04-.06,0,0,.01-.01.02-.02.03-.04.06-.07.08-.11,0,0,0,0,0,0,0,0,0-.01.01-.02.01-.02.02-.04.04-.06.01-.02.02-.03.03-.05,0,0,0,0,0,0,0,0,0,0,0,0,0,0,0,0,0,0,0-.02.02-.04.02-.06,0,0,0,0,0,0,0,0,0-.01,0-.02,0,0,0-.02,0-.03h0s0,0,0,0c0-.01,0-.02,0-.04,0,0,0-.01,0-.02.03-.05.06-.1.1-.14,0,0,0,0-.01,0-.04.02-.06.06-.1.08-.03.02-.08-.01-.05-.04.02-.02.04-.04.06-.05,0,0,0,0,0,0,.04-.04.08-.1.13-.13.03-.02.06-.04.08-.06,0,0,0,0,.01-.01.02-.02.04-.05.06-.07,0,0,0,0,0,0,.25-.24.66-.23.99-.38.13-.05.28.03.41,0,.08,0,.16,0,.23.05-.23.13-.45.27-.66.4ZM24.7,23.45s.08,0,.1-.05h-.21s-.03-.03-.03-.05c-.13.03-.28.08-.41.1-.18.05-.34.18-.54.23-.28.1-.52.34-.83.44-.03,0-.03-.03-.03-.05.03-.08.13-.1.18-.18,0-.03,0-.05-.03-.05.21-.28.49-.44.75-.67v-.08c.08-.1.21-.16.26-.28.03-.08.13-.18.26-.23-.03-.03-.08-.03-.08-.08-.1,0-.21.05-.31-.03.05-.05.1-.07.16-.09-.02,0-.04-.02-.06-.04-.03-.05.05-.11.13-.13.1-.03.23-.03.31-.1-.18-.03-.39.05-.57-.05.13-.34.34-.62.65-.78.03,0,.08,0,.08.03,0,.13-.08.23-.21.26.21.05.41.05.62.16-.03.05-.08.03-.1.03.13.08.28.03.41.13-.08.08-.16,0-.23,0,.8.23,1.66.41,2.33.93-.57.28-1.16.41-1.79.54-.08,0-.13,0-.21-.03,0,.03,0,.08-.03.08-.1,0-.18,0-.26.05-.1.05-.26.08-.34,0Z" style="fill:#000091; stroke-width:0px;"/><path d="M51.31,13.64h-14.73s.03,0,.14.06c.12.06.27.15.37.2.19.1.37.22.49.41.05.08.13.23.08.34-.05.13-.08.34-.21.39-.16.08-.36.08-.54.05-.1,0-.21-.03-.31-.05.39.16.75.34,1.01.7.03.05.13.08.23.08.03,0,.03.05.03.08-.05.05-.1.08-.08.16h.08c.13-.05.1-.31.28-.23.13.08.18.26.1.39-.1.1-.21.18-.31.26-.03.05-.03.13,0,.18.08.1.1.21.13.31.08.18.1.39.18.57.1.39.21.78.18,1.16,0,.21-.1.39-.03.6.05.21.18.36.28.54.1.16.21.26.28.41.16.26.44.52.31.83-.08.18-.36.16-.54.26-.16.13-.03.34.05.47.13.23-.16.39-.34.47.05.08.16.05.18.1.03.13.16.21.08.34-.1.16-.41.23-.26.47.1.18.04.38-.03.57-.08.23-.28.34-.47.39-.16.05-.34.05-.49.03-.05-.03-.1-.05-.16-.05-.44-.05-.88-.18-1.32-.18-.13.03-.26.05-.36.1-.12.09-.22.18-.31.28,0,0,0,0,0,0-.02.02-.04.04-.06.06-.01.01-.02.03-.03.04,0,0-.01.02-.02.03-.08.09-.14.19-.2.3,0,0,0,.01-.01.02,0,.01-.01.02-.02.04-.08.16-.15.32-.2.47-.18.59-.1,1.1.02,1.22.03.03.85.29,1.43.54.27.12.46.21.61.31h14.47v-13.7Z" style="fill:#e1000f; stroke-width:0px;"/><path d="M37.46,18.64c.1.03.26.03.26.08-.05.21-.36.26-.52.47h-.08c-.08.05-.05.18-.13.18-.08-.03-.16,0-.23.03.1.1.23.18.39.16.03,0,.08.05.08.1,0,0,.03,0,.05-.03.03,0,.05,0,.05.03v.1c-.08.1-.21.05-.31.08.21.05.41.05.6,0,.16-.05,0-.31.1-.44-.05,0,0-.08-.05-.08.05-.05.1-.13.16-.16.05,0,.13-.03.16-.08,0-.05-.1-.08-.08-.13.16-.1.28-.26.23-.41-.03-.08-.23-.08-.36-.13-.13-.05-.28,0-.44.03-.13,0-.26.08-.39.1-.18.05-.34.16-.49.26.18-.08.36-.1.57-.16.16,0,.29-.04.44,0Z" style="fill:#9d9d9c; stroke-width:0px;"/><path d="M159.76,23.82c2.06-1.24,4.19-2.91,6.09-4.84,1.49-1.51-5.07-.84-6.65.51-1.7,1.45-3.44,3.05-5.04,4.93-.93,1.09,3.55.64,5.59-.59ZM279.71,57.85c1.17.7,1.11-2.95-1.23-4.41-8.4-5.24-31.39,3.89-40.1,4.93-1.63.2-2.23-.22-1.84-1.33.74-2.14,3.65-6.07,4.24-7.42.55-1.29.48-5.74-6.09-5.74-5.37,0-10.3,2.49-13.76,5.63-3.3,2.81-9.69,8.38-13.63,8.38s7.86-12.31,8.52-12.93c1.77-1.66-3.82-1.25-6.17.54-.94.71-4.69,4.73-7.03,8.61-6.79,4.69-13.54,5.78-10.33,1.88,1.71-2.08,4.6-4.86,6.59-7.07,2.78-3.08,2.27-5.1-3.85-5.1-8.2,0-9.07.71-13.7,6.13-.86,1.01-.41,3.53.47,2.66,5.55-5.49,5.43-5.05,12.78-5.05-1.18,1.26-3.29,2.51-6.86,7.04-3.18,4.05-1.1,7.32,3.42,7.32,2.5,0,6.23-1.17,9.65-3.58-.41,2.11.44,3.62,3.66,3.62,3.73,0,7.99-2.22,11.52-4.69-.44,2.68.94,4.69,4.88,4.69,3.04,0,6.58-1.19,10.23-4.36-.02,2.42,1.69,4.34,4.87,4.34,7.74,0,34.49-9.71,43.8-4.1ZM222.9,58.48c-5.08,0,5.09-11.6,11.71-11.6,3.97,0-6.82,11.6-11.71,11.6ZM218.87,40.54c2.06-1.24,5.94-4.25,7.85-6.19,1.49-1.51-5.07-.84-6.65.51-1.7,1.45-4.52,4.05-6.12,5.93-.93,1.09,2.87.98,4.92-.25ZM178.78,52.9c-1.99,1.94-6.34,5.19-10.15,5.19-2.81,0,2.79-5.04,5.57-9.11,2.65-3.88.48-5.05-1.71-5.05-5.42,0-10.71,3.8-14.3,6.48,1.08-1.45,2.77-3.31,4.57-5.69,1-1.32-4.98-.85-6.51,1.17-.49.64-1.02,1.35-1.6,2.12-5.18,6.23-13.02,10.44-16.86,10.44-2.14,0-2.92-1.48-1.59-4.26,3.21-6.72,14.29-19.5,20.31-25.09,2.73-2.56-5.48-1.52-7.36.37-8.34,8.39-16.74,17.76-19.1,25.05-1.31,4.03-.1,7.65,4.91,7.65,4.11,0,8.67-2.04,12.53-4.46-.95,1.3-1.82,2.48-2.52,3.42-1.09,1.48,4.44.94,5.61-.55,4.38-5.6,14.89-12.49,17.82-12.49,2.66,0-6.51,6.88-6.43,11.09.11,5.53,12.91,2.14,17.26-3.55.68-.89.15-3.33-.46-2.74Z" style="fill:#e1000f; stroke-width:0px;"/></g></svg>